<svg xmlns="http://www.w3.org/2000/svg" viewBox="0 0 100 100" role="img" aria-label="Bricklap">
  <title>Bricklap</title>
  <path fill="#C0402C" fill-rule="evenodd" d="M20,0 H80 A20,20 0 0 1 100,20 V80 A20,20 0 0 1 80,100 H20 A20,20 0 0 1 0,80 V20 A20,20 0 0 1 20,0 Z M20,13 H80 A7,7 0 0 1 87,20 V80 A7,7 0 0 1 80,87 H20 A7,7 0 0 1 13,80 V20 A7,7 0 0 1 20,13 Z"/>
  <g fill="#C0402C"><rect x="19" y="19" width="13" height="62" rx="3"/><rect x="37" y="19" width="44" height="28.5" rx="3"/></g>
  <g fill="#E89478"><rect x="37" y="52.5" width="44" height="28.5" rx="3"/></g>
</svg>
